<?xml version="1.0" encoding="UTF-8" standalone="no"?>
<!-- Created with Inkscape (http://www.inkscape.org/) -->

<svg
   width="100mm"
   height="100mm"
   viewBox="0 0 99.999997 99.999997"
   version="1.1"
   id="svg1"
   inkscape:version="1.3.2 (091e20ef0f, 2023-11-25, custom)"
   sodipodi:docname="logo.svg"
   xmlns:inkscape="http://www.inkscape.org/namespaces/inkscape"
   xmlns:sodipodi="http://sodipodi.sourceforge.net/DTD/sodipodi-0.dtd"
   xmlns="http://www.w3.org/2000/svg"
   xmlns:svg="http://www.w3.org/2000/svg">
  <sodipodi:namedview
     id="namedview1"
     pagecolor="#ffffff"
     bordercolor="#666666"
     borderopacity="1.0"
     inkscape:showpageshadow="2"
     inkscape:pageopacity="0.0"
     inkscape:pagecheckerboard="0"
     inkscape:deskcolor="#d1d1d1"
     inkscape:document-units="mm"
     inkscape:zoom="1.5928451"
     inkscape:cx="223.81335"
     inkscape:cy="257.40105"
     inkscape:window-width="1770"
     inkscape:window-height="1063"
     inkscape:window-x="150"
     inkscape:window-y="0"
     inkscape:window-maximized="1"
     inkscape:current-layer="g7" />
  <defs
     id="defs1" />
  <g
     inkscape:label="Layer 1"
     inkscape:groupmode="layer"
     id="layer1"
     transform="translate(-27.659607,-49.464382)">
    <g
       id="g7"
       transform="translate(-21.040198,-16.201245)">
      <path
         style="color:#000000;fill:#f7f7f7;fill-rule:evenodd;stroke-linecap:round;stroke-linejoin:round;-inkscape-stroke:none;paint-order:fill markers stroke"
         d="m 99.796875,67.587891 c -3.397024,-0.07143 -6.896019,0.130562 -10.067093,1.458623 -2.908464,1.235685 -5.296552,3.393542 -7.436271,5.670258 -1.447464,1.554031 -2.851746,3.148494 -4.231102,4.763092 -1.453531,1.722663 -2.778113,3.55567 -3.910149,5.505993 -2.249289,3.757798 -4.166045,7.700301 -6.119948,11.615966 -4.942406,10.172827 -9.336476,20.601147 -13.56819,31.086037 -0.455166,1.17389 -0.732663,2.44285 -0.574419,3.70509 0.264437,2.86857 2.168081,5.56984 4.874854,6.62326 1.236593,0.49563 2.572496,0.65427 3.845498,1.01451 0.445037,0.19295 0.377429,0.75322 0.341694,1.14869 -0.102497,0.66178 0.09803,1.31561 0.169418,1.97022 0.550371,3.39279 2.216861,6.68793 4.940451,8.84291 0.33065,0.3486 0.928095,0.45246 1.085242,0.93016 0.137379,0.61639 -0.174282,1.21315 -0.166901,1.83129 -0.222116,2.48847 0.591809,4.52728 2.24869,6.40303 1.123103,1.31846 2.791214,2.07273 4.29536,2.73939 1.504146,0.66665 19.905932,1.51398 27.378171,1.44844 7.47223,-0.0655 27.77867,-0.3006 31.16917,-2.99795 3.3905,-2.69736 3.88019,-5.52523 2.83857,-8.84139 -0.63709,-2.14302 -2.12941,-3.95948 -3.97843,-5.18514 -0.80352,-0.55066 -1.66043,-1.01963 -2.53965,-1.4373 0.21463,-0.77338 0.85109,-1.32839 1.14557,-2.06509 0.44352,-0.79654 0.84733,-1.61485 1.22009,-2.44675 0.79084,-0.39225 1.73193,-0.22363 2.52263,-0.62026 2.94053,-0.91706 5.42112,-3.10319 6.81907,-5.83442 0.95357,-1.67029 1.61929,-3.59858 1.3851,-5.54479 -0.22875,-2.38659 -0.96147,-4.68939 -1.74777,-6.94258 -1.2776,-3.53847 -2.87159,-6.95088 -4.44831,-10.36303 -3.58427,-7.57332 -7.63986,-14.918228 -12.00148,-22.069955 -3.07038,-5.005069 -6.54573,-9.79352 -10.6817,-13.976714 -2.17555,-2.322523 -4.33938,-4.76247 -7.14766,-6.338724 -2.33899,-1.297649 -5.00003,-1.950517 -7.660505,-2.092866 z"
         id="path548"
         sodipodi:nodetypes="cccccccccccccccczzzcccccccccccccc" />
      <g
         id="g548">
        <path
           style="fill:#c77f57;fill-opacity:1;fill-rule:evenodd;stroke:none;stroke-width:0.666999;stroke-linecap:round;stroke-linejoin:round;stroke-opacity:1;paint-order:fill markers stroke"
           d="m 78.517695,134.77849 c 0,0 -1.120157,17.22986 -1.66365,19.98717 -0.543493,2.75731 22.242932,3.8095 23.055654,1.04762 0.812721,-2.76188 -7.69109,-2.84632 -10.248699,-6.8625 -2.557609,-4.01618 -2.479788,-16.04388 -2.479788,-16.04388 z"
           id="path4"
           sodipodi:nodetypes="czzzcc" />
        <path
           style="fill:#c77f57;fill-opacity:1;fill-rule:evenodd;stroke:none;stroke-width:0.666999;stroke-linecap:round;stroke-linejoin:round;stroke-opacity:1;paint-order:fill markers stroke"
           d="m 107.38044,132.5067 c 0,0 0.52893,19.53951 1.27129,22.38845 0.74236,2.84894 20.80867,2.65378 20.70144,0.34136 -0.10723,-2.31242 -7.43646,-3.52791 -10.06037,-7.43929 -2.62391,-3.91138 -3.86092,-15.26698 -3.86092,-15.26698 z"
           id="path5"
           sodipodi:nodetypes="czzzcc" />
        <path
           style="fill:#ffffff;fill-opacity:1;fill-rule:evenodd;stroke:#000000;stroke-width:3.23699;stroke-linecap:round;stroke-linejoin:round;stroke-dasharray:none;stroke-opacity:1;paint-order:fill markers stroke"
           d="m 84.185247,84.511998 c -7.44702,8.475981 -22.384434,46.167512 -22.384434,46.167512 0,0 8.080048,1.40925 10.229056,4.22448 -0.642951,2.00143 -2.888756,7.68151 1.267958,10.104 4.156714,2.42249 15.240466,-2.00701 17.548369,-2.51129 2.856535,0.6113 6.610373,6.28409 9.278074,5.41317 2.66771,-0.87092 6.34439,-2.94443 4.88137,-5.2547 3.85268,-1.63361 9.73423,3.34293 15.09712,1.71275 5.36288,-1.63019 5.5893,-9.69483 8.53437,-11.86877 2.85974,0.6698 4.98662,-0.0176 6.96161,-2.34084 -1.13113,-8.76019 -16.95915,-38.153851 -24.67652,-46.450975 -7.71738,-8.29712 -7.73711,-8.236279 -13.033208,-8.183781 -5.296095,0.0525 -6.256744,0.512461 -13.703765,8.988444 z"
           id="path1"
           sodipodi:nodetypes="zcczczczcczzz" />
        <g
           id="g8"
           transform="rotate(16.769535,109.66951,101.27432)">
          <path
             style="fill:none;fill-rule:evenodd;stroke:#000000;stroke-width:2.73955;stroke-linecap:round;stroke-linejoin:round;stroke-dasharray:none;stroke-opacity:1;paint-order:fill markers stroke"
             d="m 103.57684,103.79533 c 1.58329,-1.08574 3.01704,-5.61714 5.43973,-5.752641 2.42269,-0.135501 6.71173,1.624186 6.71173,1.624186 0,0 -2.72005,3.378705 -4.72173,4.175785 -2.00168,0.79708 -5.70688,-0.45068 -7.42973,-0.0474 z"
             id="path3"
             sodipodi:nodetypes="czczcc" />
          <path
             style="fill:#000000;fill-opacity:1;fill-rule:evenodd;stroke:none;stroke-width:1.867;stroke-linecap:round;stroke-linejoin:round;stroke-dasharray:none;stroke-opacity:1;paint-order:fill markers stroke"
             id="path6"
             sodipodi:type="arc"
             sodipodi:cx="109.7748"
             sodipodi:cy="100.84087"
             sodipodi:rx="2.5739446"
             sodipodi:ry="2.5739446"
             sodipodi:start="1.8454383"
             sodipodi:end="1.8423889"
             sodipodi:open="true"
             sodipodi:arc-type="arc"
             d="m 109.07674,103.31835 a 2.5739446,2.5739446 0 0 1 -1.77995,-3.17365 2.5739446,2.5739446 0 0 1 3.17229,-1.782367 2.5739446,2.5739446 0 0 1 1.78479,3.170937 2.5739446,2.5739446 0 0 1 -3.16957,1.7872" />
        </g>
        <g
           id="g9"
           transform="rotate(-10.059367,89.729102,101.37566)">
          <path
             style="fill:none;fill-rule:evenodd;stroke:#000000;stroke-width:2.73955;stroke-linecap:round;stroke-linejoin:round;stroke-dasharray:none;stroke-opacity:1;paint-order:fill markers stroke"
             d="m 81.808533,100.04763 c 3.019037,-0.013 5.776534,-2.254142 8.461755,-1.981776 2.685221,0.272366 5.642304,4.715306 5.642304,4.715306 0,0 -4.447161,1.77499 -6.723026,1.77967 -2.275866,0.005 -5.082643,-3.90592 -7.381033,-4.5132 z"
             id="path2"
             sodipodi:nodetypes="czczc" />
          <path
             style="fill:#000000;fill-opacity:1;fill-rule:evenodd;stroke:none;stroke-width:1.867;stroke-linecap:round;stroke-linejoin:round;stroke-dasharray:none;stroke-opacity:1;paint-order:fill markers stroke"
             id="path7"
             sodipodi:type="arc"
             sodipodi:cx="89.811035"
             sodipodi:cy="100.91151"
             sodipodi:rx="2.5739446"
             sodipodi:ry="2.5739446"
             sodipodi:start="1.8454383"
             sodipodi:end="1.8423889"
             sodipodi:open="true"
             sodipodi:arc-type="arc"
             d="m 89.112975,103.38899 a 2.5739446,2.5739446 0 0 1 -1.77995,-3.17365 2.5739446,2.5739446 0 0 1 3.172292,-1.782374 2.5739446,2.5739446 0 0 1 1.784787,3.170934 2.5739446,2.5739446 0 0 1 -3.169571,1.7872" />
        </g>
      </g>
    </g>
  </g>
</svg>
